<svg xmlns="http://www.w3.org/2000/svg" viewBox="0 0 512 512"><circle cx="256" cy="256" r="256" style="fill:#303c42"/><path d="M490.13,245.33H266.67V21.87A234.3,234.3,0,0,1,490.13,245.33Z" style="fill:#00aeef"/><path d="M245.33,21.87V245.33H21.87A234.3,234.3,0,0,1,245.33,21.87Z" style="fill:#ec008c"/><path d="M21.87,266.67H245.33V490.13A234.3,234.3,0,0,1,21.87,266.67Z" style="fill:#fff200"/><path d="M266.67,490.13V266.67H490.13A234.3,234.3,0,0,1,266.67,490.13Z" style="fill:#231f20"/><path d="M456.23,245.33h33.9A233.32,233.32,0,0,0,427.05,96.06a228.38,228.38,0,0,1,29.18,149.27Z" style="opacity:0.10000000149011612;isolation:isolate"/><path d="M54.28,375.1a234.08,234.08,0,0,0,191.05,115V446.92c-7,.64-14.13,1.08-21.33,1.08A233.77,233.77,0,0,1,54.28,375.1Z" style="opacity:0.10000000149011612;isolation:isolate"/><path d="M266.67,443.94v46.19A234.3,234.3,0,0,0,490.13,266.67H452.35A234.68,234.68,0,0,1,266.67,443.94Z" style="opacity:0.10000000149011612;isolation:isolate"/></svg>