<svg xmlns="http://www.w3.org/2000/svg" viewBox="0 0 183.37 57.26"><rect width="38.81" height="57.26" style="fill:none"/><path d="M40.81,38V20.91H45V34.38h6.61V38Z" style="fill:#00006d"/><path d="M65.28,32.11v1H56.56a2.13,2.13,0,0,0,.3.92,2.74,2.74,0,0,0,.65.71,3.18,3.18,0,0,0,.92.46,2.85,2.85,0,0,0,1,.18,3.16,3.16,0,0,0,2.68-1.27l2.76,1.75a5.52,5.52,0,0,1-2.23,1.89,7.34,7.34,0,0,1-3.23.66A7.68,7.68,0,0,1,56.85,38a6.39,6.39,0,0,1-2.11-1.23,5.54,5.54,0,0,1-1.45-2A6.55,6.55,0,0,1,52.74,32a7,7,0,0,1,.5-2.67A5.77,5.77,0,0,1,56.68,26a7,7,0,0,1,2.56-.46,6.5,6.5,0,0,1,2.43.44,5.35,5.35,0,0,1,1.92,1.41,6.1,6.1,0,0,1,1.24,2A8.39,8.39,0,0,1,65.28,32.11ZM61.6,30.58A2.33,2.33,0,0,0,61,29a2.16,2.16,0,0,0-1.76-.69,2.82,2.82,0,0,0-1.08.18,2.58,2.58,0,0,0-.85.49,2.33,2.33,0,0,0-.58.74,2.3,2.3,0,0,0-.25.92Z" style="fill:#00006d"/><path d="M71.6,28.9v4.59a2.1,2.1,0,0,0,.33,1.29,1.35,1.35,0,0,0,1.17.42h.62a2.55,2.55,0,0,0,.54-.15v3a7,7,0,0,1-1,.25,6.71,6.71,0,0,1-1.26.11,5.65,5.65,0,0,1-2-.3,3.1,3.1,0,0,1-1.31-.92A3.5,3.5,0,0,1,68,35.78,6.45,6.45,0,0,1,67.76,34V28.9H65.82V26h1.89V22.8h3.9V26h2.76v2.9Z" style="fill:#00006d"/><path d="M87.25,29.5a4,4,0,0,0-1.13-.77,3.14,3.14,0,0,0-1.38-.32,2.69,2.69,0,0,0-1,.22.8.8,0,0,0-.41,1,.81.81,0,0,0,.46.43,9.88,9.88,0,0,0,1.69.48,10.51,10.51,0,0,1,1.35.41,5,5,0,0,1,1.25.7A3.57,3.57,0,0,1,89,32.74a3,3,0,0,1,.34,1.5,3.79,3.79,0,0,1-.46,1.92,4,4,0,0,1-1.22,1.24,5.36,5.36,0,0,1-1.63.7,7.59,7.59,0,0,1-1.84.22,8.83,8.83,0,0,1-2.88-.48,5.86,5.86,0,0,1-2.37-1.36l2.2-2.34a4.4,4.4,0,0,0,1.26.92,3.53,3.53,0,0,0,1.63.39,2.27,2.27,0,0,0,.92-.23.85.85,0,0,0,.48-.81.93.93,0,0,0-.59-.82A10.81,10.81,0,0,0,83,33a7.83,7.83,0,0,1-1.25-.38A4.49,4.49,0,0,1,80.63,32a3,3,0,0,1-.81-1,3.17,3.17,0,0,1-.32-1.45A3.5,3.5,0,0,1,80,27.72a4,4,0,0,1,1.18-1.24,5,5,0,0,1,1.61-.71,6.89,6.89,0,0,1,1.75-.23,8.21,8.21,0,0,1,2.65.42,5.79,5.79,0,0,1,2.22,1.3Z" style="fill:#00006d"/><path d="M96.87,38V20.91h11.5v3.48h-7.5v3.23h7.07v3.32h-7.07v3.54h7.94V38Z" style="fill:#00006d"/><path d="M119.25,38V31.41a4.77,4.77,0,0,0-.08-1,2.6,2.6,0,0,0-.28-.81,1.5,1.5,0,0,0-.54-.55,1.72,1.72,0,0,0-.92-.2,1.93,1.93,0,0,0-1.59.75,2.77,2.77,0,0,0-.4.83,4.81,4.81,0,0,0-.13,1V38h-4V26h3.84v1.66h0a5.06,5.06,0,0,1,.55-.76,3.58,3.58,0,0,1,.82-.63,5.24,5.24,0,0,1,1-.44,4.39,4.39,0,0,1,1.19-.17,4.45,4.45,0,0,1,2,.43,4,4,0,0,1,1.39,1.11,4.43,4.43,0,0,1,.75,1.58,7.28,7.28,0,0,1,.23,1.8V38Z" style="fill:#00006d"/><path d="M133.46,29.84a2.23,2.23,0,0,0-.91-.7,2.73,2.73,0,0,0-1.19-.27,2.66,2.66,0,0,0-1.14.25,2.85,2.85,0,0,0-.86.68,3.26,3.26,0,0,0-.55,1A3.41,3.41,0,0,0,128.6,32a3.72,3.72,0,0,0,.2,1.19,2.5,2.5,0,0,0,1.46,1.63,3,3,0,0,0,1.17.25,3.76,3.76,0,0,0,1.2-.23,2.54,2.54,0,0,0,.92-.67l2.17,2.68A5.15,5.15,0,0,1,133.79,38a7.42,7.42,0,0,1-2.51.41,8.06,8.06,0,0,1-2.66-.43A6,6,0,0,1,125,34.65a7.05,7.05,0,0,1,0-5.34,6.19,6.19,0,0,1,1.44-2A6.41,6.41,0,0,1,128.62,26a7.66,7.66,0,0,1,2.64-.44,5.59,5.59,0,0,1,1.29.12,7.41,7.41,0,0,1,1.23.32,6.31,6.31,0,0,1,1.09.5,4.56,4.56,0,0,1,.85.67Z" style="fill:#00006d"/><path d="M145,29.18a3.12,3.12,0,0,0-.53-.11H144a3,3,0,0,0-1.33.3,2.73,2.73,0,0,0-.88.7,2.92,2.92,0,0,0-.43.93,3.09,3.09,0,0,0-.14.85V38h-3.95V26h3.81v1.7h0a3.93,3.93,0,0,1,1.23-1.51,3.4,3.4,0,0,1,2-.59h.47a2.21,2.21,0,0,1,.37.08Z" style="fill:#00006d"/><path d="M154.37,39.79a10.39,10.39,0,0,1-.81,1.68,5.05,5.05,0,0,1-1.09,1.26,4.38,4.38,0,0,1-1.43.76,6.43,6.43,0,0,1-2,.26,8.88,8.88,0,0,1-1.15-.07,6.78,6.78,0,0,1-1-.19l.44-3.33c.21.06.42.11.64.15a3.47,3.47,0,0,0,.64.06,1.84,1.84,0,0,0,1.33-.42,3.5,3.5,0,0,0,.7-1.19l.39-1-5-11.84h4.34l2.68,7.77h.08L155.51,26h4.19Z" style="fill:#00006d"/><path d="M174.16,31.93a8,8,0,0,1-.38,2.42,6.71,6.71,0,0,1-1.13,2,5.39,5.39,0,0,1-1.84,1.41,5.2,5.2,0,0,1-2.42.54,4.92,4.92,0,0,1-2.1-.44,3.68,3.68,0,0,1-1.54-1.22h-.05v7.1h-4V26h3.78v1.47h.08a5.11,5.11,0,0,1,1.54-1.27,4.89,4.89,0,0,1,2.31-.55,5.35,5.35,0,0,1,2.36.52,5.08,5.08,0,0,1,1.84,1.37,6.22,6.22,0,0,1,1.14,2A7.23,7.23,0,0,1,174.16,31.93Zm-3.85,0a3.65,3.65,0,0,0-.17-1.13,3.26,3.26,0,0,0-.55-1,2.66,2.66,0,0,0-2.11-.92,2.52,2.52,0,0,0-1.21.27,3,3,0,0,0-.92.69,3.84,3.84,0,0,0-.58,1,3.3,3.3,0,0,0,.58,3.27,3,3,0,0,0,.92.7,2.67,2.67,0,0,0,1.21.26,2.75,2.75,0,0,0,1.23-.26,2.5,2.5,0,0,0,.91-.7,2.72,2.72,0,0,0,.55-1A3.61,3.61,0,0,0,170.31,31.93Z" style="fill:#00006d"/><path d="M180.49,28.9v4.59a2.13,2.13,0,0,0,.32,1.28,1.37,1.37,0,0,0,1.18.42,3.11,3.11,0,0,0,.61,0,1.67,1.67,0,0,0,.54-.15l.05,2.9a4.88,4.88,0,0,1-1,.25,7,7,0,0,1-3.32-.19,3,3,0,0,1-1.32-.92,3.35,3.35,0,0,1-.71-1.36,6.46,6.46,0,0,1-.22-1.75V28.9h-1.93V26h1.94V22.8h3.89V26h2.85v2.9Z" style="fill:#00006d"/><path d="M78,20.55a2,2,0,0,0-2.11,1.88h0v0a1.84,1.84,0,0,0,1.73,1.94h.51A2.15,2.15,0,0,1,76.37,26H76.2v1.84h.21A4.33,4.33,0,0,0,79,26.67a4.82,4.82,0,0,0,1.4-3.56,2.34,2.34,0,0,0-2.09-2.55Z" style="fill:#00006d"/><path d="M24.37,19.79V17.47a5.15,5.15,0,0,0-10.3,0v2.32H9.64V17.47a9.58,9.58,0,1,1,19.16,0v2.34Z" style="fill:#ffb100"/><path d="M30.26,19.79H8.09a1.74,1.74,0,0,0-1.7,1.72h0V37.94a1.73,1.73,0,0,0,1.73,1.72H30.26A1.72,1.72,0,0,0,32,37.94h0V21.51a1.72,1.72,0,0,0-1.72-1.72ZM20.9,30.9v3.34a1.74,1.74,0,1,1-3.47.26,1.13,1.13,0,0,1,0-.26V30.9a3.52,3.52,0,1,1,4.79-1.35h0a3.59,3.59,0,0,1-1.29,1.25Z" style="fill:#00006d"/><path d="M30.87,17a.76.76,0,0,1-.57-.24.79.79,0,0,1-.23-.56.8.8,0,0,1,.8-.8h4.79a.8.8,0,0,1,.68,1.33.79.79,0,0,1-.55.27Z" style="fill:#ffb100"/><path d="M2.56,17a.79.79,0,0,1-.78-.73.82.82,0,0,1,.75-.87H7.37a.81.81,0,0,1,.71.86.78.78,0,0,1-.71.74H2.56Z" style="fill:#ffb100"/><path d="M27.63,9.56a.79.79,0,0,1-.56-.23.82.82,0,0,1-.24-.57.79.79,0,0,1,.29-.61l3.75-3.08a.84.84,0,0,1,.58-.24.8.8,0,0,1,.79.81.77.77,0,0,1-.25.57l-.08.07-3.77,3.1a.77.77,0,0,1-.5.18Z" style="fill:#ffb100"/><path d="M10.75,9.56a.88.88,0,0,1-.52-.18L6.51,6.31a.82.82,0,0,1,0-1.11A.79.79,0,0,1,7.09,5a.75.75,0,0,1,.46.15l3.71,3.05a.79.79,0,0,1,.12,1.11h0A.83.83,0,0,1,10.75,9.56Z" style="fill:#ffb100"/><path d="M19.17,6.29a.81.81,0,0,1-.81-.81V.69a.81.81,0,0,1,.8-.69A.84.84,0,0,1,20,.74V5.48a.8.8,0,0,1-.79.81Z" style="fill:#ffb100"/></svg>