<?xml version="1.0" encoding="UTF-8"?><svg id="a" xmlns="http://www.w3.org/2000/svg" viewBox="0 0 368.5 123.71"><defs><style>.b{fill:#fff;}.c{fill:#616161;}</style></defs><path class="b" d="M175.26,104.39s-5.6,18.7-26.04,19.28c-2.68,.08-14.05,.04-14.05,.04l12.15-29.83-133.02,.16L1.55,80.15s9.05-22.48,13.66-30.24c2.02-3.4,21.55-15.67,21.55-15.67H200.71l-25.44,70.15Z"/><path class="c" d="M.17,80.43c.47-3.63,2.71-10.55,5.02-16.91,5.03-13.84,8.99-21.45,13.96-25.42,4.06-3.18,8.75-4.88,15.37-4.88,6.22,0,9.88,2.04,11.7,4.77,1.36,2.04,1.79,4.99,1.34,8.51-.61,4.76-2.62,10.89-5.7,19.06H14.66c-2.35,6.69-3.94,11.69-4.29,14.41-.23,1.82-.03,3.4,1.02,4.65,.83,.91,2.25,1.47,4.27,1.47,2.16,0,4.54-.57,6.32-1.82,2.23-1.59,3.89-3.97,5.32-7.72h10.28c-2.41,6.13-4.6,9.42-8.79,12.59-4.2,3.18-8.96,4.86-15.04,4.86s-10.6-2.14-12.59-5.66c-1.08-2.16-1.42-4.77-1.01-7.94Zm33.89-21.56c2.04-5.33,3.08-9.19,3.41-11.8,.48-3.75-.97-6.13-5.3-6.13-2.16,0-4.55,.68-6.54,2.5-3.03,2.5-5.04,6.58-8.35,15.43h16.78Z"/><path class="c" d="M48.36,75.89c1.68-5.33,5.22-10.21,9.95-13.28,3.87-2.5,8.02-3.52,14.92-3.52h7.31l2.96-9.08c.53-1.47,.77-2.61,.85-3.52,.3-3.4-1.54-5.56-5.74-5.56-2.3,0-4.11,.57-5.84,1.82-2.45,1.7-3.59,3.97-4.68,7.15h-10.28c1.62-4.65,3.79-9.3,8.83-12.82,3.6-2.5,8.18-3.86,13.86-3.86s9.89,1.36,12.09,4.08c1.71,2.16,2.45,4.54,2.11,8.4-.13,1.48-.72,3.63-1.11,4.99l-11.5,35.4s-1.57,7.04-12.43,8.22c-2.7,.29-6.11-.16-9.08-.16-4.87,0-16.3-2.31-12.2-18.27Zm14.94,10.21c3.58,0,5.92,.09,7.58-.98,1.04-.67,1.8-1.79,2.43-3.67l5.18-16h-5.41c-4.06,0-5.99,.45-8.58,2.16-3.87,2.5-6.23,7.83-6.62,12.25-.34,3.86,1.35,6.24,5.41,6.24Z"/><path class="c" d="M93.97,80.88c.12-1.36,.37-2.72,.93-4.42h10.15c-.38,1.25-.6,2.27-.69,3.29-.16,1.82,.25,3.29,1.25,4.31,1.23,1.36,2.93,2.04,5.64,2.04,2.84,0,6.83-1.14,8.86-2.73,2.76-2.16,3.98-5.01,4.58-8.47,.48-2.75-2.3-5.12-5.75-7.15-3.64-2.14-7.52-3.78-7.52-3.78-6.61-2.95-8.05-6.92-7.62-11.91,.48-5.56,3.27-11.12,8.75-14.98,3.88-2.61,8.45-3.86,14-3.86,6.09,0,10.27,1.7,12.59,4.54,1.84,2.16,2.8,4.54,2.51,7.83-.13,1.48-.75,2.95-1.3,4.65h-9.88c.53-1.48,1.01-2.63,1.1-3.65,.15-1.7-.29-2.8-1.44-3.87-1.12-1.04-2.9-1.79-5.34-1.79-2.3,0-4.38,.57-6.26,1.93-2.59,1.82-3.75,3.87-4.2,6.89-.4,2.71,1.65,4.93,4.89,6.63l6.42,3.82c6.59,3.52,11.32,7.25,9.94,13.85-1.38,6.61-4.75,12.38-9.49,15.56-4.18,2.95-10.74,4.45-16.56,4.45s-10.06-1.73-12.92-4.68c-2.25-2.16-2.94-5.11-2.64-8.51Z"/><path class="b" d="M280.24,46.16c.02,.46,.01,.94-.06,1.46-.39,2.98-2.37,8.73-5.1,16.02-4.18,11.16-6.7,16.91-10.18,19.67-2.49,2.26-7.9,2-8.62,2h-26.76c-5.41,0-7.32-2.27-6.85-5.9,.16-1.25,.43-2.27,.87-3.63l19.49-53.2,1.14-3.75c.93-5.37-.23-9.75-3.45-13.05-.42-.43-.65-.64-1.12-1l-6.07,15.65-20.48,55.91c-.65,1.93-.95,3.18-1.13,4.54-.44,3.4,.31,6.01,2.33,8.17,1.97,2.1,5.81,3.99,12.41,4.09h30.03c6.28-.08,11-1.82,14.55-4.63,5.13-3.98,8.28-9.39,14.11-24.86,2.92-7.74,4.42-12.93,4.86-16.24,.06-.43,.09-.84,.13-1.24h-10.11Z"/><path class="b" d="M357.68,34.14l-24.11,44.36,6.12-44.36h-8.66l-28.24,44.36,5.16-27.19h0c1.17-6.28-.42-9.6-4.25-12.97-5.24-4.6-17.14-4.2-18.04-4.2h-13.62c-.05,0-.09,0-.14,0-6.49,0-11.33,1.77-14.95,4.64-5.13,3.98-8.25,9.17-14.11,24.86-2.92,7.74-4.42,12.93-4.86,16.24-.05,.36-.08,.69-.11,1.03h10.07c0-.4,.01-.81,.07-1.25,.39-2.98,2.37-8.73,5.1-16.02,4.18-11.16,6.7-16.91,10.18-19.67,1.83-1.55,4.23-2.32,6.67-2.32,.07,0,.12,0,.19,0h21.26s4.02,.2,5.62,2.44c1.57,2.2,1.64,4.87,1.16,7.46h0l-.03,.22h0l-5.87,41.15h9.88l27.72-43.46-6.01,43.46h9.6l35.04-58.77h-10.82Z"/><path class="b" d="M226.8,9.3l2.97-7.77c-.09-.03-.18-.06-.26-.09C224.56-.26,219.62,.02,219.62,.02c-5.98,.33-8.6,1.77-12.29,3.84-4.97,2.84-7.93,6.92-10.23,13.28l-6.76,17-19.13,52.07h10.38l16.99-45.65h16.35l2.35-6.69h-16.21l6.14-16.39c2.12-5.71,6.71-8.93,13.01-9.34,0,0,3.82-.19,6.47,1.1,.04,.02,.08,.04,.11,.06Z"/><path class="c" d="M201.06,33.87h-18.74v.27h-3.61l-14.39,44.93-4.66-44.93h-10.69l8.84,58.66-3.86,8.8c-1.73,3.86-5.62,4.66-11.97,4.54l-3.96,9.03c2.65-.03,10.29-.35,12.41-.75,6.39-1.18,11.11-3.87,14.85-12.08l22.71-61.81h10.58l2.48-6.65Z"/></svg>