<?xml version="1.0" encoding="UTF-8"?>
<svg id="Camada_1" xmlns="http://www.w3.org/2000/svg" baseProfile="tiny" version="1.2" viewBox="0 0 16.481 21.883">
  <!-- Generator: Adobe Illustrator 29.2.1, SVG Export Plug-In . SVG Version: 2.1.0 Build 116)  -->
  <path d="M1.761.142h0c.894,0,1.62.726,1.62,1.62v19.98H.142V1.761C.142.868.868.142,1.761.142Z" fill="none" stroke="#010101" stroke-linecap="round" stroke-linejoin="round" stroke-width=".283"/>
  <path d="M5.001,3.381c-.895,0-1.62-.725-1.62-1.62v19.98h3.239V1.761c0,.895-.725,1.62-1.62,1.62Z" fill="none" stroke="#010101" stroke-linecap="round" stroke-linejoin="round" stroke-width=".283"/>
  <path d="M8.24.142h0c.894,0,1.62.726,1.62,1.62v19.98h-3.239V1.761c0-.894.726-1.62,1.62-1.62Z" fill="none" stroke="#010101" stroke-linecap="round" stroke-linejoin="round" stroke-width=".283"/>
  <path d="M11.48,3.381c-.895,0-1.62-.725-1.62-1.62v19.98h3.239V1.761c0,.895-.725,1.62-1.62,1.62Z" fill="none" stroke="#010101" stroke-linecap="round" stroke-linejoin="round" stroke-width=".283"/>
  <path d="M14.719.142h0c.894,0,1.62.726,1.62,1.62v19.98h-3.239V1.761c0-.894.726-1.62,1.62-1.62Z" fill="none" stroke="#010101" stroke-linecap="round" stroke-linejoin="round" stroke-width=".283"/>
  <polygon points=".142 21.742 16.339 21.742 16.339 2.062 .142 21.742" fill="#010101" stroke="#010101" stroke-linecap="round" stroke-linejoin="round" stroke-width=".283"/>
</svg>